<svg width="27" height="28" viewBox="0 0 27 28" fill="none" xmlns="http://www.w3.org/2000/svg">
<path d="M6.75 24.5C6.13125 24.5 5.60156 24.2715 5.16094 23.8146C4.72031 23.3576 4.5 22.8083 4.5 22.1667V10.5C4.5 9.85833 4.72031 9.30903 5.16094 8.85208C5.60156 8.39514 6.13125 8.16667 6.75 8.16667H7.875V5.83333C7.875 4.21944 8.42344 2.84375 9.52031 1.70625C10.6172 0.56875 11.9438 0 13.5 0C15.0563 0 16.3828 0.56875 17.4797 1.70625C18.5766 2.84375 19.125 4.21944 19.125 5.83333V8.16667H20.25C20.8688 8.16667 21.3984 8.39514 21.8391 8.85208C22.2797 9.30903 22.5 9.85833 22.5 10.5V22.1667C22.5 22.8083 22.2797 23.3576 21.8391 23.8146C21.3984 24.2715 20.8688 24.5 20.25 24.5H6.75ZM6.75 22.1667H20.25V10.5H6.75V22.1667ZM13.5 18.6667C14.1188 18.6667 14.6484 18.4382 15.0891 17.9813C15.5297 17.5243 15.75 16.975 15.75 16.3333C15.75 15.6917 15.5297 15.1424 15.0891 14.6854C14.6484 14.2285 14.1188 14 13.5 14C12.8813 14 12.3516 14.2285 11.9109 14.6854C11.4703 15.1424 11.25 15.6917 11.25 16.3333C11.25 16.975 11.4703 17.5243 11.9109 17.9813C12.3516 18.4382 12.8813 18.6667 13.5 18.6667ZM10.125 8.16667H16.875V5.83333C16.875 4.86111 16.5469 4.03472 15.8906 3.35417C15.2344 2.67361 14.4375 2.33333 13.5 2.33333C12.5625 2.33333 11.7656 2.67361 11.1094 3.35417C10.4531 4.03472 10.125 4.86111 10.125 5.83333V8.16667Z" fill="white"/>
</svg>
